<svg width="20" height="20" viewBox="0 0 20 20" fill="none" xmlns="http://www.w3.org/2000/svg">
<path d="M0.807607 19.1924C0.0265586 18.4113 0.0265586 17.145 0.807607 16.364L16.364 0.807612C17.145 0.0265635 18.4113 0.0265635 19.1924 0.807612C19.9734 1.58866 19.9734 2.85499 19.1924 3.63604L3.63603 19.1924C2.85499 19.9734 1.58866 19.9734 0.807607 19.1924Z" fill="#983636"/>
<path d="M0.807607 3.63604C0.0265585 2.85499 0.0265586 1.58866 0.807607 0.807612C1.58866 0.0265635 2.85499 0.0265635 3.63603 0.807612L19.1924 16.364C19.9734 17.145 19.9734 18.4113 19.1924 19.1924C18.4113 19.9734 17.145 19.9734 16.364 19.1924L0.807607 3.63604Z" fill="#983636"/>
</svg>
